<?xml version="1.0" encoding="UTF-8" standalone="no"?>
<!DOCTYPE svg PUBLIC "-//W3C//DTD SVG 1.1//EN" "http://www.w3.org/Graphics/SVG/1.1/DTD/svg11.dtd">
<svg width="100%" height="100%" viewBox="0 0 618 350" version="1.1" xmlns="http://www.w3.org/2000/svg" xmlns:xlink="http://www.w3.org/1999/xlink" xml:space="preserve" xmlns:serif="http://www.serif.com/" style="fill-rule:evenodd;clip-rule:evenodd;stroke-linejoin:round;stroke-miterlimit:2;">
    <g transform="matrix(1,0,0,1,-696.364,-385.161)">
        <g transform="matrix(1.35038,0,0,1.35038,501.768,-36.4955)">
            <g transform="matrix(1,0,0,1,-571.2,-15.2)">
                <path d="M854.421,407.474L863.942,407.417C863.942,407.417 888.21,408.174 888.846,430.747C889.615,458.075 888.817,541.947 888.197,552.745C888.197,552.745 760.74,554.285 759.325,553.735C754.533,551.872 725.63,517.063 731.002,510.731C735.674,505.223 754.432,479.738 754.432,479.738L754.877,461.201C754.877,461.201 749.093,461.794 735.747,460.905C726.893,460.314 722.252,446.817 720.176,444.444C718.1,442.072 718.397,436.436 717.952,436.14C713.865,433.415 715.728,426.946 715.728,426.946C715.728,426.946 723.587,419.383 723.587,417.752C723.587,416.121 723.29,399.364 723.29,399.364C723.29,399.364 746.127,374.895 745.238,368.964C744.348,363.032 740.668,336.608 746.924,337.748C753.117,338.877 782.375,360.224 782.375,360.224C782.375,360.224 790.391,356.388 790.391,350.751C790.391,345.114 801.531,326.055 806.094,327.531C820.66,332.243 822.469,359.206 822.603,363.367C842.337,378.873 854.421,407.474 854.421,407.474Z" style="fill:rgb(19,20,25);"/>
            </g>
        </g>
        <g transform="matrix(1.35038,0,0,1.35038,501.768,-36.4955)">
            <g transform="matrix(0.558526,0,0,0.691718,152.496,93.8311)">
                <rect x="290.49" y="508.349" width="388.266" height="133.12" style="fill:rgb(19,20,25);"/>
            </g>
        </g>
        <g transform="matrix(1.35038,0,0,1.35038,501.768,-36.4955)">
            <g transform="matrix(0.308453,-0.314823,0.314823,0.308453,-45.8312,217.357)">
                <ellipse cx="63.727" cy="637.849" rx="27.671" ry="13.107" style="fill:rgb(255,172,0);"/>
            </g>
        </g>
        <g transform="matrix(1.35038,0,0,1.35038,501.768,-36.4955)">
            <g transform="matrix(0.900108,0,0,0.900108,-178.52,-125.572)">
                <g transform="matrix(50,0,0,50,755.176,774.246)">
                </g>
                <text x="406.676px" y="774.246px" style="font-family:'Teko-Regular', 'Teko';font-size:50px;fill:rgb(19,20,25);">C<tspan x="429.676px 452.326px 483.876px 506.026px 528.176px 543.276px 554.676px 575.426px 591.476px 613.626px 645.176px 667.326px 698.626px 721.276px 737.326px " y="774.246px 774.246px 774.246px 774.246px 774.246px 774.246px 774.246px 774.246px 774.246px 774.246px 774.246px 774.246px 774.246px 774.246px 774.246px ">ombat Framework</tspan></text>
            </g>
        </g>
        <g transform="matrix(1.35038,0,0,1.35038,501.768,-36.4955)">
            <g transform="matrix(1.26062,0,0,1.26062,-717.846,-351.167)">
                <g transform="matrix(116.151,0,0,116.151,1037.35,685.923)">
                </g>
                <text x="722.644px" y="685.923px" style="font-family:'DaysOne-Regular', 'Days One';font-size:116.151px;fill:none;stroke:rgb(19,20,25);stroke-width:20.56px;">F<tspan x="814.804px 879.741px 963.961px " y="685.923px 685.923px 685.923px ">ray</tspan></text>
                <g transform="matrix(116.151,0,0,116.151,1037.35,685.923)">
                </g>
                <text x="722.644px" y="685.923px" style="font-family:'DaysOne-Regular', 'Days One';font-size:116.151px;fill:white;">F<tspan x="814.804px 879.741px 963.961px " y="685.923px 685.923px 685.923px ">ray</tspan></text>
            </g>
        </g>
    </g>
</svg>
