<?xml version="1.0" encoding="UTF-8" standalone="no"?>
<!DOCTYPE svg PUBLIC "-//W3C//DTD SVG 1.1//EN" "http://www.w3.org/Graphics/SVG/1.1/DTD/svg11.dtd">
<svg width="100%" height="100%" viewBox="0 0 14 14" version="1.1" xmlns="http://www.w3.org/2000/svg" xmlns:xlink="http://www.w3.org/1999/xlink" xml:space="preserve" xmlns:serif="http://www.serif.com/" style="fill-rule:evenodd;clip-rule:evenodd;stroke-linecap:round;stroke-linejoin:round;stroke-miterlimit:1.5;">
    <g transform="matrix(1,0,0,1,-0.695831,-0.672826)">
        <g id="push_box_2d">
            <path d="M0.981,5.105L0.981,2.737C0.981,2.265 1.168,1.813 1.502,1.479C1.836,1.145 2.288,0.958 2.76,0.958C5.3,0.958 9.94,0.958 12.48,0.958C12.952,0.958 13.404,1.145 13.738,1.479C14.072,1.813 14.259,2.265 14.259,2.737C14.259,5.237 14.259,9.763 14.259,12.263C14.259,12.735 14.072,13.187 13.738,13.521C13.404,13.855 12.952,14.042 12.48,14.042C9.94,14.042 5.3,14.042 2.76,14.042C2.288,14.042 1.836,13.855 1.502,13.521C1.168,13.187 0.981,12.735 0.981,12.263L0.981,9.897L7.827,9.897C7.827,9.897 7.827,10.972 7.827,11.923C7.827,12.166 7.973,12.385 8.197,12.479C8.421,12.573 8.679,12.524 8.852,12.354C10.176,11.057 12.421,8.856 13.365,7.931C13.481,7.817 13.546,7.662 13.546,7.5C13.546,7.338 13.481,7.183 13.365,7.069C12.421,6.144 10.176,3.943 8.852,2.646C8.679,2.476 8.421,2.427 8.197,2.521C7.973,2.615 7.827,2.834 7.827,3.077L7.827,5.105L0.981,5.105Z" style="fill:rgb(141,165,243);stroke:rgb(141,165,243);stroke-width:0.57px;"/>
        </g>
    </g>
</svg>
