<?xml version="1.0" encoding="UTF-8" standalone="no"?>
<!DOCTYPE svg PUBLIC "-//W3C//DTD SVG 1.1//EN" "http://www.w3.org/Graphics/SVG/1.1/DTD/svg11.dtd">
<svg width="100%" height="100%" viewBox="0 0 16 16" version="1.1" xmlns="http://www.w3.org/2000/svg" xmlns:xlink="http://www.w3.org/1999/xlink" xml:space="preserve" xmlns:serif="http://www.serif.com/" style="fill-rule:evenodd;clip-rule:evenodd;stroke-linecap:round;stroke-linejoin:round;stroke-miterlimit:1.5;">
    <g transform="matrix(1,0,0,1,-0.761739,-0.010504)">
        <g id="collision_state">
            <g transform="matrix(1,0,0,1,-1.39077,0)">
                <g transform="matrix(5.87082e-17,0.958778,-0.871356,5.33552e-17,16.6342,1.25312)">
                    <rect x="7.306" y="4.456" width="7.52" height="7.52" style="fill:none;stroke:rgb(250,155,155);stroke-width:0.87px;"/>
                </g>
                <g transform="matrix(1.23094,0,0,0.911491,-0.843677,-0.371832)">
                    <rect x="7.306" y="4.456" width="7.52" height="7.52" style="fill:none;stroke:rgb(250,155,155);stroke-width:0.74px;"/>
                </g>
            </g>
            <g transform="matrix(1,0,0,1,-1.33253,-0.988995)">
                <g transform="matrix(1.0158,-0.470632,0.509579,0.883819,-3.3917,4.68188)">
                    <path d="M7.874,6.736C7.874,6.736 11.048,7.955 11.875,8.272C12.003,8.321 12.11,8.412 12.185,8.533C12.202,8.561 12.22,8.591 12.239,8.621C12.398,8.88 12.401,9.228 12.248,9.521C12.094,9.813 11.81,10 11.514,10.002C11.512,10 11.509,10 11.507,10C11.399,10 11.292,9.983 11.19,9.949L7.896,8.851L7.874,6.736Z" style="fill:rgb(250,155,155);fill-rule:nonzero;"/>
                </g>
                <g transform="matrix(1.20262,0,0,1.20262,-1.42809,-0.74235)">
                    <circle cx="12.517" cy="6.613" r="1.16" style="fill:rgb(250,155,155);"/>
                </g>
                <g transform="matrix(1,0,0,1,1.74461,0.700538)">
                    <path d="M3.777,9.623C3.767,9.492 3.762,9.378 3.762,9.299L3.762,8.299C3.762,8.299 3.742,7.684 3.726,7.188C3.714,6.827 3.955,6.505 4.306,6.416C4.544,6.355 4.762,6.299 4.762,6.299L4.762,5.299L3.762,5.299C3.208,5.299 2.762,4.853 2.762,4.299L2.762,1.299C2.762,0.745 3.208,0.299 3.762,0.299L7.762,0.299C8.316,0.299 8.762,0.745 8.762,1.299L8.762,4.299C8.762,4.853 8.316,5.299 7.762,5.299L6.762,5.299L6.762,6.29C6.814,6.291 7.023,6.31 7.237,6.333C7.536,6.378 7.757,6.634 7.757,6.936C7.761,7.61 7.762,8.688 7.762,8.688L7.762,9.299C7.769,9.502 7.747,9.68 7.712,9.831L8.738,10.431C9.165,10.681 9.346,11.214 9.159,11.672L7.964,14.6C7.81,15.013 7.401,15.277 6.961,15.248C6.414,15.212 5.993,14.732 6.029,14.184C6.037,14.067 6.065,13.952 6.113,13.844L6.979,11.719L5.401,10.796L2.142,14.878C2.018,15.039 1.847,15.158 1.654,15.22C1.131,15.387 0.564,15.094 0.397,14.571C0.294,14.247 0.362,13.892 0.579,13.63L3.777,9.623ZM7.762,2.299L6.762,2.299L6.762,4.299L7.762,4.299L7.762,2.299Z" style="fill:rgb(250,155,155);fill-rule:nonzero;"/>
                </g>
                <g transform="matrix(-0.802553,-0.895414,0.895414,-0.802553,3.51651,18.3449)">
                    <path d="M5.079,6.297L2.469,6.746C2.243,6.785 2.09,7.001 2.129,7.228L2.618,10.24C2.657,10.466 2.872,10.619 3.099,10.58L3.92,10.439C4.147,10.4 4.299,10.184 4.261,9.957L3.984,8.177L5.361,7.94C5.588,7.901 5.74,7.686 5.701,7.459L5.56,6.638C5.521,6.411 5.306,6.258 5.079,6.297Z" style="fill:rgb(255,196,196);"/>
                </g>
            </g>
        </g>
    </g>
</svg>
