<?xml version="1.0" encoding="UTF-8" standalone="no"?><!DOCTYPE svg PUBLIC "-//W3C//DTD SVG 1.1//EN" "http://www.w3.org/Graphics/SVG/1.1/DTD/svg11.dtd"><svg width="100%" height="100%" viewBox="0 0 630 363" version="1.1" xmlns="http://www.w3.org/2000/svg" xmlns:xlink="http://www.w3.org/1999/xlink" xml:space="preserve" xmlns:serif="http://www.serif.com/" style="fill-rule:evenodd;clip-rule:evenodd;stroke-linejoin:round;stroke-miterlimit:2;"><g id="fray-logo-light"><g id="Fray-Logo" serif:id="Fray Logo"><path d="M202.327,128.302l11.933,-0.073c-0,0 30.415,0.95 31.212,29.241c0.964,34.251 -0.036,139.368 -0.813,152.902c0,-0 -159.744,1.929 -161.517,1.24c-6.006,-2.334 -42.231,-45.962 -35.498,-53.898c5.855,-6.902 29.365,-38.844 29.365,-38.844l0.557,-23.232c0,0 -7.248,0.744 -23.975,-0.371c-11.097,-0.74 -16.913,-17.657 -19.515,-20.63c-2.602,-2.974 -2.23,-10.037 -2.788,-10.408c-5.122,-3.415 -2.788,-11.523 -2.788,-11.523c0,-0 9.851,-9.479 9.851,-11.523c-0,-2.045 -0.372,-23.047 -0.372,-23.047c0,0 28.622,-30.666 27.507,-38.1c-1.115,-7.434 -5.727,-40.552 2.114,-39.123c7.761,1.414 44.431,28.169 44.431,28.169c0,0 10.046,-4.808 10.046,-11.873c-0,-7.065 13.962,-30.952 19.681,-29.101c18.255,5.906 20.522,39.699 20.691,44.914c24.733,19.433 39.878,55.28 39.878,55.28Z" style="fill:#131419;"/><rect x="241.832" y="194.967" width="271.789" height="115.407" style="fill:#131419;"/><path d="M61.063,125.449c5.904,-6.026 13.014,-8.648 15.869,-5.851c2.854,2.797 0.378,9.959 -5.526,15.985c-5.904,6.026 -13.014,8.648 -15.869,5.851c-2.854,-2.796 -0.378,-9.959 5.526,-15.985Z" style="fill:#ffac00;"/><g transform="matrix(1.57995,0,0,1.57995,-1052.32,-803.463)"><g transform="matrix(116.151,0,0,116.151,1037.35,685.923)"></g><text x="722.644px" y="685.923px" style="font-family:'DaysOne-Regular', 'Days One';font-size:116.151px;fill:none;stroke:#131419;stroke-width:22.15px;">F<tspan x="814.804px 879.741px 963.961px " y="685.923px 685.923px 685.923px ">ray</tspan></text><g transform="matrix(116.151,0,0,116.151,1037.35,685.923)"></g><text x="722.644px" y="685.923px" style="font-family:'DaysOne-Regular', 'Days One';font-size:116.151px;fill:#fff;">F<tspan x="814.804px 879.741px 963.961px " y="685.923px 685.923px 685.923px ">ray</tspan></text></g></g><g transform="matrix(56.4058,0,0,56.4058,475.547,361.718)"></g><text x="82.398px" y="361.718px" style="font-family:'Teko-Regular', 'Teko';font-size:56.406px;fill:#131419;">C<tspan x="108.345px 133.896px 169.489px 194.476px 219.464px 236.499px 249.359px 272.768px 290.874px 315.862px 351.454px 376.442px 411.752px 437.303px 455.41px " y="361.718px 361.718px 361.718px 361.718px 361.718px 361.718px 361.718px 361.718px 361.718px 361.718px 361.718px 361.718px 361.718px 361.718px 361.718px ">ombat Framework</tspan></text></g></svg>