<?xml version="1.0" encoding="UTF-8" standalone="no"?>
<!DOCTYPE svg PUBLIC "-//W3C//DTD SVG 1.1//EN" "http://www.w3.org/Graphics/SVG/1.1/DTD/svg11.dtd">
<svg width="100%" height="100%" viewBox="0 0 16 16" version="1.1" xmlns="http://www.w3.org/2000/svg" xmlns:xlink="http://www.w3.org/1999/xlink" xml:space="preserve" xmlns:serif="http://www.serif.com/" style="fill-rule:evenodd;clip-rule:evenodd;">
    <g id="fighter_body_2d" transform="matrix(1.01474,0,0,1.01474,1.14206,0.277212)">
        <g id="combat_graph.svg" transform="matrix(1,0,0,1,10.7432,7.48435)">
            <g transform="matrix(1,0,0,1,-8,-8)">
                <g id="combat_fsm" transform="matrix(1.60466,0,0,1.60466,-4.83729,-4.77022)">
                    <g>
                        <g id="path5237" transform="matrix(1,0,0,1,-244.292,-302.556)">
                            <path d="M249.824,310.688L252.077,310.688" style="fill:none;fill-rule:nonzero;stroke:rgb(224,224,224);stroke-width:0.89px;"/>
                        </g>
                        <g id="path5239" transform="matrix(1,0,0,1,-244.292,-302.556)">
                            <path d="M253.145,307.649L251.696,307.649L251.696,313.462L253.139,313.462" style="fill:none;fill-rule:nonzero;stroke:rgb(224,224,224);stroke-width:0.89px;"/>
                        </g>
                    </g>
                    <g>
                        <g id="path5243" transform="matrix(1,0,0,1,-244.292,-302.556)">
                            <path d="M252.926,309.193L252.926,306.011L254.517,307.602L252.926,309.193Z" style="fill:rgb(224,224,224);fill-rule:nonzero;"/>
                        </g>
                        <g id="path5245" transform="matrix(1,0,0,1,-244.292,-302.556)">
                            <path d="M252.926,315.016L252.926,311.835L254.517,313.426L252.926,315.016Z" style="fill:rgb(224,224,224);fill-rule:nonzero;"/>
                        </g>
                    </g>
                </g>
            </g>
        </g>
        <g transform="matrix(0.851088,0,0,0.851088,-1.81507,1.11602)">
            <g transform="matrix(1,0,0,1,0.41208,-0.288457)">
                <path d="M3.777,9.623C3.767,9.492 3.762,9.378 3.762,9.299L3.762,8.299C3.762,8.299 3.742,7.684 3.726,7.188C3.714,6.827 3.955,6.505 4.306,6.416C4.544,6.355 4.762,6.299 4.762,6.299L4.762,5.299L3.762,5.299C3.208,5.299 2.762,4.853 2.762,4.299L2.762,1.299C2.762,0.745 3.208,0.299 3.762,0.299L7.762,0.299C8.316,0.299 8.762,0.745 8.762,1.299L8.762,4.299C8.762,4.853 8.316,5.299 7.762,5.299L6.762,5.299L6.762,6.29C6.814,6.291 7.023,6.31 7.237,6.333C7.536,6.378 7.757,6.634 7.757,6.936C7.761,7.61 7.762,8.688 7.762,8.688L7.762,9.299C7.769,9.502 7.747,9.68 7.712,9.831L8.738,10.431C9.165,10.681 9.346,11.214 9.159,11.672L7.964,14.6C7.81,15.013 7.401,15.277 6.961,15.248C6.414,15.212 5.993,14.732 6.029,14.184C6.037,14.067 6.065,13.952 6.113,13.844L6.979,11.719L5.401,10.796L2.142,14.878C2.018,15.039 1.847,15.158 1.654,15.22C1.131,15.387 0.564,15.094 0.397,14.571C0.294,14.247 0.362,13.892 0.579,13.63L3.777,9.623ZM7.762,2.299L6.762,2.299L6.762,4.299L7.762,4.299L7.762,2.299Z" style="fill:rgb(224,224,224);fill-rule:nonzero;"/>
            </g>
            <g transform="matrix(-0.802553,-0.895414,0.895414,-0.802553,2.80174,17.5206)">
                <path d="M5.079,6.297L2.469,6.746C2.243,6.785 2.09,7.001 2.129,7.228L2.618,10.24C2.657,10.466 2.872,10.619 3.099,10.58L3.92,10.439C4.147,10.4 4.299,10.184 4.261,9.957L3.984,8.177L5.361,7.94C5.588,7.901 5.74,7.686 5.701,7.459L5.56,6.638C5.521,6.411 5.306,6.258 5.079,6.297Z" style="fill:rgb(240,240,240);"/>
            </g>
        </g>
    </g>
</svg>
