<?xml version="1.0" encoding="UTF-8" standalone="no"?>
<!DOCTYPE svg PUBLIC "-//W3C//DTD SVG 1.1//EN" "http://www.w3.org/Graphics/SVG/1.1/DTD/svg11.dtd">
<svg width="100%" height="100%" viewBox="0 0 16 16" version="1.1" xmlns="http://www.w3.org/2000/svg" xmlns:xlink="http://www.w3.org/1999/xlink" xml:space="preserve" xmlns:serif="http://www.serif.com/" style="fill-rule:evenodd;clip-rule:evenodd;stroke-linejoin:round;stroke-miterlimit:2;">
    <rect x="0" y="0" width="16" height="16" style="fill:none;fill-rule:nonzero;"/>
    <path d="M11.333,2.667C13.528,2.667 15.333,4.472 15.333,6.667L15.333,9.333C15.333,11.528 13.528,13.333 11.333,13.333L4.667,13.333C2.472,13.333 0.667,11.528 0.667,9.333L0.667,6.667C0.667,4.472 2.472,2.667 4.667,2.667L11.333,2.667ZM6.667,6L5.333,6L5.333,7.333L4,7.333L4,8.667L5.333,8.667L5.333,10L6.667,10L6.666,8.667L8,8.667L8,7.333L6.667,7.333L6.667,6ZM12,8.667L10.667,8.667L10.667,10L12,10L12,8.667ZM10.667,6L9.333,6L9.333,7.333L10.667,7.333L10.667,6Z" style="fill:white;fill-rule:nonzero;"/>
</svg>
