<?xml version="1.0" encoding="UTF-8" standalone="no"?>
<!DOCTYPE svg PUBLIC "-//W3C//DTD SVG 1.1//EN" "http://www.w3.org/Graphics/SVG/1.1/DTD/svg11.dtd">
<svg width="100%" height="100%" viewBox="0 0 14 14" version="1.1" xmlns="http://www.w3.org/2000/svg" xmlns:xlink="http://www.w3.org/1999/xlink" xml:space="preserve" xmlns:serif="http://www.serif.com/" style="fill-rule:evenodd;clip-rule:evenodd;stroke-linejoin:round;stroke-miterlimit:2;">
    <g transform="matrix(1,0,0,1,-1,-1)">
        <g id="attaxkbox">
            <path d="M1,1L1,5L3,5L3,3L5,3L5,1L1,1ZM11,1L11,3L13,3L13,5L15,5L15,1L11,1ZM1,11L1,15L5,15L5,13L3,13L3,11L1,11ZM13,11L13,13L11,13L11,15L15,15L15,11L13,11Z" style="fill:rgb(250,155,155);fill-rule:nonzero;"/>
            <g id="Layer1" transform="matrix(1,0,0,1,-0.265859,-0.208922)">
                <g transform="matrix(0.725,0,0,1,1.18828,0)">
                    <path d="M5.145,5.277C5.145,5.12 4.968,4.992 4.751,4.992L4.156,4.992C3.981,4.992 3.814,5.042 3.69,5.132C3.567,5.221 3.497,5.342 3.497,5.469L3.497,9.898C3.497,10.191 3.824,10.428 4.228,10.428L4.678,10.428C4.802,10.428 4.921,10.392 5.008,10.329C5.096,10.266 5.145,10.18 5.145,10.09L5.145,5.277Z" style="fill:rgb(250,155,155);"/>
                </g>
                <g transform="matrix(0.775,0,0,1.16485,5.12865,-1.8113)">
                    <path d="M5.145,5.253C5.145,5.183 5.103,5.117 5.03,5.068C4.956,5.019 4.857,4.992 4.753,4.992L3.994,4.992C3.862,4.992 3.736,5.027 3.643,5.089C3.55,5.151 3.497,5.235 3.497,5.322L3.497,10.057C3.497,10.262 3.747,10.428 4.056,10.428L4.532,10.428C4.694,10.428 4.85,10.385 4.965,10.309C5.08,10.232 5.145,10.129 5.145,10.02L5.145,5.253Z" style="fill:rgb(250,155,155);"/>
                </g>
                <g transform="matrix(0.863467,0,0,1.07273,6.94015,-0.863836)">
                    <path d="M5.145,5.551C5.145,5.242 4.833,4.992 4.449,4.992L3.846,4.992C3.653,4.992 3.497,5.117 3.497,5.272L3.497,9.959C3.497,10.218 3.758,10.428 4.08,10.428L4.721,10.428C4.833,10.428 4.941,10.392 5.021,10.328C5.1,10.264 5.145,10.177 5.145,10.087L5.145,5.551Z" style="fill:rgb(250,155,155);"/>
                </g>
                <g transform="matrix(0.725,0,0,1.14061,3.21783,-1.32128)">
                    <path d="M5.145,5.349C5.145,5.152 4.893,4.992 4.583,4.992L4.138,4.992C3.968,4.992 3.805,5.035 3.685,5.111C3.565,5.187 3.497,5.291 3.497,5.399L3.497,10.096C3.497,10.184 3.552,10.269 3.65,10.331C3.748,10.393 3.881,10.428 4.019,10.428L4.599,10.428C4.744,10.428 4.882,10.392 4.985,10.326C5.087,10.261 5.145,10.173 5.145,10.081L5.145,5.349Z" style="fill:rgb(250,155,155);"/>
                </g>
                <g transform="matrix(6.12323e-17,1,-0.816727,5.00101e-17,16.2401,7.26976)">
                    <path d="M5.145,4.992L3.497,4.992L3.497,9.902C3.497,10.192 3.69,10.428 3.927,10.428L4.675,10.428C4.8,10.428 4.919,10.367 5.007,10.26C5.095,10.152 5.145,10.005 5.145,9.853L5.145,4.992Z" style="fill:rgb(250,155,155);"/>
                </g>
                <g transform="matrix(1.03861,0,0,1,-0.181312,0)">
                    <g transform="matrix(5.89361e-17,0.9625,-0.206879,1.26677e-17,6.85348,1.80663)">
                        <rect x="3.497" y="4.992" width="1.647" height="5.436" style="fill:rgb(250,155,155);"/>
                    </g>
                    <g transform="matrix(6.27631e-17,1.025,-0.206879,1.26677e-17,8.91268,1.07324)">
                        <rect x="3.497" y="4.992" width="1.647" height="5.436" style="fill:rgb(250,155,155);"/>
                    </g>
                    <g transform="matrix(5.35783e-17,0.875,-0.206879,1.26677e-17,10.9719,1.59785)">
                        <rect x="3.497" y="4.992" width="1.647" height="5.436" style="fill:rgb(250,155,155);"/>
                    </g>
                </g>
                <g transform="matrix(1,0,0,1,0.16226,0)">
                    <path d="M11.205,9.928C11.205,9.928 11.799,6.119 11.706,5.724C11.614,5.328 11.053,4.613 10.829,4.534C10.605,4.454 10.889,9.822 10.889,9.822L11.205,9.928Z" style="fill:rgb(250,155,155);"/>
                </g>
                <g transform="matrix(1,0,0,1,0.238091,0.219776)">
                    <path d="M11.019,10.605C11.019,10.605 11.61,10.426 11.768,9.529C11.926,8.633 12.021,7.168 12.021,7.168C12.021,7.168 12.59,9.466 12.569,10.035C12.548,10.605 12.47,12.185 12.15,12.185C11.778,12.185 10.927,12.191 10.927,12.191L11.019,10.605Z" style="fill:rgb(250,155,155);"/>
                </g>
                <g transform="matrix(1.45192,0,0,1.45192,-4.05006,-4.495)">
                    <path d="M9.712,10.584C9.712,10.584 9.448,10.394 9.385,10.288C9.322,10.183 9.006,10.594 8.963,10.594C8.921,10.594 9.712,10.584 9.712,10.584Z" style="fill:rgb(250,155,155);"/>
                </g>
                <g transform="matrix(1,0,0,1,0.0656398,0)">
                    <path d="M4.551,5.171C4.549,5.151 4.554,5.131 4.567,5.115C4.579,5.099 4.598,5.089 4.618,5.087C4.806,5.067 5.282,5.016 5.282,5.016C5.282,5.016 5.487,4.784 5.554,4.736C5.622,4.689 6.781,4.424 6.883,4.451C6.984,4.478 7.295,4.534 7.295,4.534C7.295,4.534 7.474,4.349 7.616,4.262C7.758,4.174 9.137,4.19 9.137,4.19C9.137,4.19 9.619,4.599 9.721,4.781C9.822,4.963 6.074,5.735 6.074,5.735L4.623,5.742C4.623,5.742 4.573,5.342 4.551,5.171Z" style="fill:rgb(250,155,155);"/>
                </g>
            </g>
        </g>
    </g>
</svg>
