<?xml version="1.0" encoding="UTF-8" standalone="no"?>
<!DOCTYPE svg PUBLIC "-//W3C//DTD SVG 1.1//EN" "http://www.w3.org/Graphics/SVG/1.1/DTD/svg11.dtd">
<svg width="100%" height="100%" viewBox="0 0 14 14" version="1.1" xmlns="http://www.w3.org/2000/svg" xmlns:xlink="http://www.w3.org/1999/xlink" xml:space="preserve" xmlns:serif="http://www.serif.com/" style="fill-rule:evenodd;clip-rule:evenodd;stroke-linejoin:round;stroke-miterlimit:2;">
    <g transform="matrix(1,0,0,1,-1,-1)">
        <g id="hurtbox">
            <path d="M1,1L1,5L3,5L3,3L5,3L5,1L1,1ZM11,1L11,3L13,3L13,5L15,5L15,1L11,1ZM1,11L1,15L5,15L5,13L3,13L3,11L1,11ZM13,11L13,13L11,13L11,15L15,15L15,11L13,11Z" style="fill:rgb(141,165,243);fill-rule:nonzero;"/>
            <g id="Layer2" transform="matrix(0.969638,0,0,0.969638,0.20638,0.245065)">
                <g>
                    <g transform="matrix(0.391722,0.391722,-0.284971,0.284971,4.9905,5.5357)">
                        <path d="M9.1,4.456C9.1,3.665 8.871,2.906 8.464,2.346C8.057,1.787 7.505,1.472 6.929,1.472C6.928,1.472 6.926,1.472 6.925,1.472C6.349,1.472 5.797,1.787 5.39,2.346C4.983,2.906 4.754,3.665 4.754,4.456C4.754,5.62 4.754,6.951 4.754,8.115C4.754,8.906 4.983,9.665 5.39,10.224C5.797,10.784 6.349,11.098 6.925,11.098C6.926,11.098 6.928,11.098 6.929,11.098C7.505,11.098 8.057,10.784 8.464,10.224C8.871,9.665 9.1,8.906 9.1,8.115C9.1,6.951 9.1,5.62 9.1,4.456Z" style="fill:rgb(141,165,243);"/>
                    </g>
                    <g transform="matrix(1,0,0,1,-0.239585,-0.208781)">
                        <circle cx="4.66" cy="10.286" r="1.455" style="fill:rgb(141,165,243);"/>
                    </g>
                    <g transform="matrix(1,0,0,1,1.38088,1.41153)">
                        <circle cx="4.66" cy="10.286" r="1.455" style="fill:rgb(141,165,243);"/>
                    </g>
                    <g transform="matrix(1,0,0,1,-0.161897,0.161897)">
                        <path d="M5.692,8.559L6.708,7.66C6.708,7.66 7.264,7.684 7.512,7.695C7.577,7.698 7.63,7.751 7.632,7.816C7.64,8.001 7.655,8.342 7.655,8.342C7.655,8.342 8,8.353 8.201,8.36C8.279,8.362 8.34,8.426 8.338,8.504C8.333,8.77 8.323,9.324 8.323,9.324L7.237,10.396L5.692,8.559Z" style="fill:rgb(141,165,243);"/>
                    </g>
                </g>
                <g transform="matrix(-1,-1.22465e-16,1.22465e-16,-1,16.0753,15.8846)">
                    <g transform="matrix(0.391722,0.391722,-0.290862,0.290862,5.12521,5.40099)">
                        <path d="M9.1,4.396C9.1,3.62 8.871,2.877 8.464,2.328C8.057,1.78 7.505,1.472 6.929,1.472C6.928,1.472 6.926,1.472 6.925,1.472C6.349,1.472 5.797,1.78 5.39,2.328C4.983,2.877 4.754,3.62 4.754,4.396C4.754,5.594 4.754,6.977 4.754,8.175C4.754,8.95 4.983,9.694 5.39,10.242C5.797,10.79 6.349,11.098 6.925,11.098C6.926,11.098 6.928,11.098 6.929,11.098C7.505,11.098 8.057,10.79 8.464,10.242C8.871,9.694 9.1,8.95 9.1,8.175C9.1,6.977 9.1,5.594 9.1,4.396Z" style="fill:rgb(141,165,243);"/>
                    </g>
                    <g transform="matrix(1,0,0,1,-0.239585,-0.208781)">
                        <circle cx="4.66" cy="10.286" r="1.455" style="fill:rgb(141,165,243);"/>
                    </g>
                    <g transform="matrix(1,0,0,1,1.26996,1.30061)">
                        <circle cx="4.66" cy="10.286" r="1.455" style="fill:rgb(141,165,243);"/>
                    </g>
                    <g transform="matrix(-1,1.22465e-16,-1.22465e-16,-1,15.8779,16.0821)">
                        <path d="M8.274,6.085C8.274,6.085 7.768,6.699 7.546,6.967C7.526,6.992 7.521,7.026 7.533,7.056C7.544,7.086 7.572,7.107 7.603,7.111C7.817,7.137 8.17,7.181 8.17,7.181C8.17,7.181 8.193,7.524 8.206,7.7C8.21,7.758 8.256,7.804 8.314,7.808C8.493,7.819 8.844,7.841 8.844,7.841L8.859,8.372C8.859,8.372 8.903,8.558 9.063,8.483C9.117,8.458 9.777,7.791 9.777,7.791L9.534,7.545L8.274,6.085Z" style="fill:rgb(141,165,243);"/>
                    </g>
                </g>
                <g>
                    <g transform="matrix(1.41986,0,0,1.63842,-2.44725,-4.63218)">
                        <path d="M6.025,7.209C6.025,7.144 5.964,7.092 5.889,7.092C5.593,7.092 4.889,7.092 4.561,7.092C4.464,7.092 4.386,7.159 4.386,7.243C4.386,7.31 4.386,7.387 4.386,7.447C4.386,7.473 4.398,7.499 4.42,7.518C4.442,7.537 4.472,7.547 4.502,7.547C4.797,7.547 5.572,7.547 5.888,7.547C5.963,7.547 6.025,7.494 6.025,7.429C6.025,7.361 6.025,7.277 6.025,7.209Z" style="fill:rgb(141,165,243);"/>
                    </g>
                    <g transform="matrix(1.14837,1.16862,-1.16862,1.14837,8.15039,-8.97721)">
                        <path d="M6.025,7.209C6.025,7.144 5.972,7.092 5.907,7.092C5.616,7.092 4.862,7.092 4.538,7.092C4.454,7.092 4.386,7.159 4.386,7.243C4.386,7.31 4.386,7.387 4.386,7.447C4.386,7.473 4.397,7.499 4.416,7.518C4.435,7.537 4.46,7.547 4.487,7.547C4.774,7.547 5.598,7.547 5.906,7.547C5.972,7.547 6.025,7.494 6.025,7.429C6.025,7.361 6.025,7.277 6.025,7.209Z" style="fill:rgb(141,165,243);"/>
                    </g>
                    <g transform="matrix(-1.60599e-17,1.37614,-1.63842,1.60599e-17,19.3087,-2.24689)">
                        <path d="M6.025,7.209C6.025,7.144 5.962,7.092 5.885,7.092C5.588,7.092 4.896,7.092 4.566,7.092C4.467,7.092 4.386,7.159 4.386,7.243C4.386,7.31 4.386,7.387 4.386,7.447C4.386,7.473 4.399,7.499 4.421,7.518C4.444,7.537 4.474,7.547 4.506,7.547C4.802,7.547 5.567,7.547 5.884,7.547C5.921,7.547 5.957,7.535 5.983,7.513C6.01,7.49 6.025,7.46 6.025,7.429C6.025,7.361 6.025,7.277 6.025,7.209Z" style="fill:rgb(141,165,243);"/>
                    </g>
                </g>
                <g transform="matrix(-1,-1.22465e-16,1.22465e-16,-1,16.0778,16.0349)">
                    <g transform="matrix(1.41986,0,0,1.63842,-2.44725,-4.63218)">
                        <path d="M6.025,7.209C6.025,7.144 5.964,7.092 5.889,7.092C5.593,7.092 4.889,7.092 4.561,7.092C4.464,7.092 4.386,7.159 4.386,7.243C4.386,7.31 4.386,7.387 4.386,7.447C4.386,7.473 4.398,7.499 4.42,7.518C4.442,7.537 4.472,7.547 4.502,7.547C4.797,7.547 5.572,7.547 5.888,7.547C5.963,7.547 6.025,7.494 6.025,7.429C6.025,7.361 6.025,7.277 6.025,7.209Z" style="fill:rgb(141,165,243);"/>
                    </g>
                    <g transform="matrix(1.14837,1.16862,-1.16862,1.14837,8.15039,-8.97721)">
                        <path d="M6.025,7.209C6.025,7.144 5.972,7.092 5.907,7.092C5.616,7.092 4.862,7.092 4.538,7.092C4.454,7.092 4.386,7.159 4.386,7.243C4.386,7.31 4.386,7.387 4.386,7.447C4.386,7.473 4.397,7.499 4.416,7.518C4.435,7.537 4.46,7.547 4.487,7.547C4.774,7.547 5.598,7.547 5.906,7.547C5.972,7.547 6.025,7.494 6.025,7.429C6.025,7.361 6.025,7.277 6.025,7.209Z" style="fill:rgb(141,165,243);"/>
                    </g>
                    <g transform="matrix(-1.60599e-17,1.37614,-1.63842,1.60599e-17,19.3087,-2.24689)">
                        <path d="M6.025,7.209C6.025,7.144 5.962,7.092 5.885,7.092C5.588,7.092 4.896,7.092 4.566,7.092C4.467,7.092 4.386,7.159 4.386,7.243C4.386,7.31 4.386,7.387 4.386,7.447C4.386,7.473 4.399,7.499 4.421,7.518C4.444,7.537 4.474,7.547 4.506,7.547C4.802,7.547 5.567,7.547 5.884,7.547C5.921,7.547 5.957,7.535 5.983,7.513C6.01,7.49 6.025,7.46 6.025,7.429C6.025,7.361 6.025,7.277 6.025,7.209Z" style="fill:rgb(141,165,243);"/>
                    </g>
                </g>
            </g>
        </g>
    </g>
</svg>
